<?xml version="1.0" standalone="no"?>
<!DOCTYPE svg PUBLIC "-//W3C//DTD SVG 20010904//EN"
 "http://www.w3.org/TR/2001/REC-SVG-20010904/DTD/svg10.dtd">
<svg version="1.0" xmlns="http://www.w3.org/2000/svg"
 width="555.000000pt" height="605.000000pt" viewBox="0 0 555.000000 605.000000"
 preserveAspectRatio="xMidYMid meet">

<g transform="translate(0.000000,605.000000) scale(0.100000,-0.100000)"
fill="#000000" stroke="none">
<path d="M3741 5830 c-13 -11 -19 -20 -13 -20 10 0 42 27 42 36 0 7 -4 5 -29
-16z"/>
<path d="M3675 5827 c-45 -26 -84 -61 -79 -69 3 -5 2 -8 -3 -7 -21 4 -22 -3
-3 -23 22 -24 25 -34 10 -43 -6 -3 -13 1 -16 9 -4 10 -18 16 -35 16 -16 0 -29
4 -29 10 0 5 -6 7 -14 4 -8 -3 -17 -1 -21 5 -3 6 -17 11 -30 11 -13 0 -27 5
-30 10 -3 6 -19 10 -36 10 -39 0 -69 -55 -51 -95 20 -44 140 -97 150 -67 2 7
11 21 21 33 l17 21 46 -23 c33 -16 48 -29 51 -48 6 -33 1 -41 -26 -41 -21 0
-21 -1 5 -25 18 -16 33 -23 45 -18 10 3 15 3 11 -2 -11 -12 11 -35 33 -35 22
0 26 -35 5 -47 -23 -13 -76 -105 -76 -132 0 -13 7 -32 16 -42 14 -16 14 -21
-5 -58 -12 -22 -35 -50 -51 -63 -40 -29 -38 -38 10 -38 31 0 47 -6 65 -26 14
-15 25 -31 25 -36 0 -5 7 -16 16 -25 14 -14 17 -13 38 6 41 39 41 22 -1 -21
-22 -24 -43 -50 -46 -58 -6 -16 -8 -6 -12 53 -3 46 -15 44 -65 -13 -44 -49
-49 -59 -48 -102 0 -26 -3 -52 -7 -57 -14 -23 18 -9 47 19 17 17 32 29 34 27
3 -2 -9 -30 -25 -61 -17 -31 -26 -54 -21 -51 15 10 12 -3 -19 -74 -55 -127
-91 -261 -91 -335 0 -56 3 -67 15 -62 9 3 15 0 15 -9 0 -7 6 -20 13 -27 11
-11 15 -32 7 -40 -1 -2 -3 -13 -4 -25 -2 -15 3 -23 12 -23 11 0 13 -8 8 -35
-4 -21 -3 -35 3 -35 23 0 63 48 71 85 5 22 20 71 34 109 19 48 29 101 35 180
5 61 8 112 6 114 -4 4 -35 -123 -36 -150 -1 -19 -3 -17 -8 7 -15 68 96 311
178 389 17 17 31 34 31 40 0 5 -13 -3 -30 -19 -16 -16 -30 -24 -30 -17 0 6 21
32 47 56 33 32 49 42 55 33 6 -9 10 -8 18 3 14 22 12 31 -7 29 -40 -4 -41 -6
49 88 27 27 46 39 57 36 13 -5 12 -2 -4 16 -11 13 -20 28 -20 34 -1 35 -19 78
-36 87 -20 11 -25 40 -10 56 5 5 19 38 31 74 12 35 30 76 41 91 10 15 19 33
19 41 0 8 5 19 10 24 13 13 0 76 -30 156 -22 58 -111 161 -152 177 -26 10 -79
3 -89 -10 -3 -5 -25 -3 -50 5 -43 13 -43 14 -19 24 21 9 22 11 5 11 -11 0 -29
-5 -40 -12z m-38 -63 c-3 -3 -12 -4 -19 -1 -8 3 -5 6 6 6 11 1 17 -2 13 -5z
m267 -273 c3 -5 -10 -11 -29 -13 -27 -3 -32 -1 -23 9 12 15 44 17 52 4z m-19
-111 c-4 -12 -9 -19 -12 -17 -3 3 -2 15 2 27 4 12 9 19 12 17 3 -3 2 -15 -2
-27z m35 -359 c-5 -11 -15 -23 -20 -26 -13 -8 -146 -201 -179 -259 l-23 -41
36 40 36 40 -49 -95 c-28 -52 -58 -124 -67 -160 -21 -78 -29 -90 -61 -90 -14
0 -21 -4 -18 -10 3 -5 1 -10 -4 -10 -6 0 -11 -4 -11 -10 0 -5 12 -10 26 -10
24 0 25 -3 19 -27 -4 -16 -7 -38 -7 -50 1 -13 -3 -23 -8 -23 -6 0 -10 6 -11
13 0 8 -2 8 -6 -2 -5 -11 -7 -11 -14 0 -8 12 -11 11 -20 -1 -8 -11 -9 -3 -6
32 5 49 -6 55 -24 14 -7 -16 -8 -10 -5 24 3 24 11 49 19 55 8 5 17 26 20 45 7
44 58 194 82 240 10 19 35 53 57 74 27 27 37 44 33 57 -7 21 10 27 18 7 3 -8
6 -6 6 5 1 9 6 17 11 17 6 0 10 6 10 13 1 6 29 34 64 61 35 27 71 59 81 72 22
29 30 31 15 5z m-370 -756 c0 -18 12 -19 28 -3 6 6 15 8 19 4 4 -4 0 -12 -10
-17 -9 -6 -17 -19 -17 -29 0 -12 -7 -20 -17 -20 -9 0 -14 3 -10 6 3 4 0 19 -8
35 -19 35 -19 39 0 39 8 0 15 -7 15 -15z m60 -80 c0 -9 -9 -15 -22 -15 -21 0
-21 0 -2 15 24 18 24 18 24 0z"/>
<path d="M3787 5829 c7 -7 15 -10 18 -7 3 3 -2 9 -12 12 -14 6 -15 5 -6 -5z"/>
<path d="M1467 5500 c-21 -57 -37 -159 -36 -230 1 -49 3 -44 14 40 7 52 21
121 30 153 20 71 15 98 -8 37z"/>
<path d="M1501 5486 c-13 -54 -14 -63 -2 -50 10 10 26 94 18 94 -3 0 -10 -20
-16 -44z"/>
<path d="M3526 5515 c-9 -24 4 -45 29 -45 13 0 30 -3 39 -6 10 -4 16 -1 16 9
0 10 -8 13 -25 9 -22 -4 -25 -1 -25 22 0 28 -24 36 -34 11z"/>
<path d="M1840 5460 c-23 -49 -62 -97 -47 -58 4 12 2 15 -9 11 -7 -3 -14 -9
-14 -13 0 -5 -3 -17 -7 -27 -7 -17 -6 -17 22 1 36 24 56 50 72 96 18 51 9 46
-17 -10z"/>
<path d="M1562 5440 c0 -19 2 -27 5 -17 2 9 2 25 0 35 -3 9 -5 1 -5 -18z"/>
<path d="M1736 5359 c-3 -13 -8 -57 -11 -98 -4 -41 -15 -119 -26 -175 -24
-130 -24 -131 10 -146 30 -12 71 -6 71 10 0 5 10 20 23 33 17 19 28 22 49 16
16 -4 30 -4 33 1 3 4 -4 10 -15 13 -26 7 -40 46 -40 109 0 40 3 49 15 44 10
-4 15 1 15 14 0 11 -4 20 -10 20 -5 0 -10 17 -10 39 0 28 -6 42 -22 53 -26 17
-17 38 18 38 15 0 24 -6 24 -15 0 -17 16 -20 25 -5 10 17 25 1 26 -28 l1 -27
8 25 c7 23 8 23 9 3 2 -36 17 -34 30 4 9 23 10 38 3 45 -6 6 -12 6 -16 -1 -12
-18 -28 -12 -22 7 6 17 2 18 -50 11 -31 -4 -61 -12 -67 -18 -17 -17 -26 -13
-47 21 -19 31 -19 31 -24 7z"/>
<path d="M3460 5341 c0 -13 25 -20 49 -14 33 9 24 23 -14 23 -19 0 -35 -4 -35
-9z"/>
<path d="M3515 5250 c-18 -7 -18 -8 8 -15 30 -8 43 -2 32 14 -7 13 -12 13 -40
1z"/>
<path d="M1930 5208 c0 -25 14 -30 36 -12 19 15 19 16 0 9 -11 -3 -23 0 -28 7
-6 10 -8 9 -8 -4z"/>
<path d="M1656 5074 c-17 -65 -38 -132 -47 -149 -9 -16 -20 -41 -24 -55 -7
-23 -6 -24 9 -11 23 19 37 47 41 81 2 15 16 71 30 124 15 53 25 104 23 113 -2
9 -16 -37 -32 -103z"/>
<path d="M1918 5133 c7 -3 16 -2 19 1 4 3 -2 6 -13 5 -11 0 -14 -3 -6 -6z"/>
<path d="M1446 5091 c-4 -24 -5 -46 -2 -48 7 -7 19 63 14 79 -3 7 -8 -7 -12
-31z"/>
<path d="M1622 5065 c-6 -27 -9 -51 -7 -53 6 -6 26 79 22 91 -2 7 -9 -10 -15
-38z"/>
<path d="M1546 5064 c-4 -20 -5 -38 -2 -41 2 -3 8 11 12 31 3 21 4 39 1 42 -2
3 -8 -11 -11 -32z"/>
<path d="M4005 5010 c-3 -6 1 -7 9 -4 18 7 21 14 7 14 -6 0 -13 -4 -16 -10z"/>
<path d="M1509 4978 c-7 -18 -25 -53 -39 -78 -40 -69 -46 -91 -14 -55 34 39
92 165 75 165 -5 0 -15 -15 -22 -32z"/>
<path d="M4027 4999 c-10 -6 -25 -8 -33 -5 -9 3 -14 -1 -14 -12 0 -12 -3 -13
-8 -4 -6 9 -14 7 -30 -8 -12 -12 -22 -22 -22 -23 0 -7 47 -1 60 8 29 19 81 33
103 27 30 -7 97 -50 119 -76 11 -14 17 -16 18 -7 0 19 -68 81 -107 97 -38 17
-62 17 -86 3z"/>
<path d="M1572 4922 c-40 -82 -42 -105 -3 -37 24 43 47 105 39 105 -2 0 -18
-31 -36 -68z"/>
<path d="M3960 4915 c-7 -9 -8 -15 -2 -15 5 0 12 7 16 15 3 8 4 15 2 15 -2 0
-9 -7 -16 -15z"/>
<path d="M4035 4920 c-17 -7 -16 -9 10 -9 17 0 37 4 45 9 12 8 10 10 -10 9
-14 0 -34 -4 -45 -9z"/>
<path d="M3973 4884 c-33 -14 -52 -34 -33 -34 13 0 90 38 90 45 0 8 -24 4 -57
-11z"/>
<path d="M4065 4881 c-3 -5 -18 -12 -34 -16 -16 -3 -54 -21 -85 -40 -46 -28
-54 -30 -41 -12 8 12 15 30 15 41 0 18 -2 18 -25 -4 -48 -46 -113 -172 -139
-270 -14 -52 -32 -112 -40 -132 -9 -21 -16 -48 -16 -60 0 -14 20 16 51 77 27
55 59 115 70 133 19 33 66 79 82 80 4 1 15 8 23 17 9 8 23 15 31 15 11 0 6 -9
-16 -30 -17 -17 -31 -35 -31 -40 0 -5 -18 -21 -40 -35 -41 -26 -58 -55 -21
-35 11 5 26 10 34 10 24 0 -3 -49 -30 -56 -12 -3 -27 -12 -33 -19 -9 -11 -3
-12 32 -8 l43 5 -65 -32 c-36 -17 -73 -39 -82 -47 -34 -31 -17 -32 38 -2 31
16 60 26 63 23 3 -4 1 -9 -6 -11 -7 -2 -10 -10 -7 -17 3 -7 -7 -18 -21 -26
-35 -19 -31 -34 8 -27 121 21 121 21 -5 -18 -84 -26 -112 -45 -67 -45 14 0 19
-5 16 -14 -3 -7 0 -19 6 -25 8 -8 6 -11 -8 -11 -10 0 -15 -3 -12 -7 4 -3 2
-12 -4 -19 -7 -9 -3 -19 16 -38 27 -27 32 -51 12 -63 -7 -4 -18 -20 -24 -35
-8 -18 -39 -43 -90 -72 -43 -24 -103 -62 -133 -84 -109 -79 -243 -133 -512
-207 -25 -7 -51 -15 -56 -19 -5 -3 -37 8 -71 25 -34 17 -63 30 -64 28 -21 -39
-27 -43 -66 -46 -45 -3 -97 -28 -105 -50 -3 -8 2 -13 12 -13 11 0 13 -3 6 -8
-8 -5 -8 -15 -2 -32 5 -13 12 -20 16 -15 4 6 16 11 27 12 17 1 18 0 5 -10 -19
-15 -14 -47 6 -47 9 0 24 5 35 11 30 16 59 19 59 7 0 -5 -7 -8 -15 -4 -17 6
-48 -21 -42 -38 5 -12 32 -13 61 -1 14 6 17 5 12 -3 -4 -7 -2 -12 3 -12 6 0
11 4 11 9 0 5 9 11 21 14 15 4 19 11 14 25 -3 11 -2 23 4 26 5 3 12 -6 16 -22
6 -26 7 -26 21 -8 8 11 14 27 14 36 0 9 15 24 33 35 17 10 38 25 45 32 7 7 28
14 45 14 18 1 43 3 57 4 14 2 59 6 100 9 73 6 167 19 263 35 l47 8 0 -33 c0
-18 -6 -37 -14 -41 -7 -4 -18 -18 -25 -30 -6 -13 -22 -25 -35 -29 -17 -4 -23
-13 -23 -32 0 -14 -5 -28 -12 -30 -7 -2 -9 -23 -5 -60 3 -31 6 -70 7 -87 2
-28 6 -30 49 -35 62 -8 73 -20 17 -20 -25 0 -50 -5 -57 -12 -16 -16 -15 -69 3
-181 14 -89 15 -290 2 -304 -4 -3 -7 10 -7 29 0 39 -25 108 -32 88 -2 -7 0
-47 5 -89 7 -57 6 -89 -4 -126 -28 -103 -3 -571 46 -867 14 -81 41 -223 61
-315 19 -93 37 -186 38 -208 2 -22 7 -52 11 -67 7 -26 5 -28 -23 -28 -67 0
-103 -124 -101 -344 2 -116 3 -112 -61 -164 -70 -56 -132 -85 -187 -88 -61 -2
-100 -23 -109 -58 -10 -41 -1 -58 41 -79 22 -12 44 -27 48 -34 6 -10 43 -13
147 -13 148 0 172 4 163 25 -11 30 102 33 120 4 8 -13 3 -26 -21 -57 -43 -53
-42 -79 3 -98 37 -15 42 -23 24 -41 -36 -36 211 -35 431 2 200 33 203 36 179
185 -7 44 -7 71 0 85 24 47 53 191 47 235 -4 34 2 72 24 150 17 58 38 148 46
200 68 428 68 427 49 571 -9 67 -18 185 -20 263 -3 77 -12 191 -21 251 -11 78
-17 221 -20 495 -6 393 -11 454 -55 609 -10 37 -10 51 4 90 9 25 21 74 27 109
11 62 8 260 -5 318 -5 20 1 62 14 115 15 60 21 114 21 195 0 62 5 148 12 191
6 43 11 92 10 108 0 17 -1 75 -2 129 -1 67 -6 111 -16 132 -16 34 -52 51 -69
32 -7 -8 -6 -9 3 -4 6 4 12 2 12 -3 0 -20 -20 -11 -29 12 -5 12 -20 34 -34 50
-20 20 -22 27 -11 27 9 0 29 -14 45 -31 l29 -31 -14 34 c-18 42 -45 56 -107
53 -27 -2 -52 1 -55 6 -7 12 -21 11 -29 0z m12 -46 c-45 -31 -48 -47 -7 -38
19 3 30 1 30 -6 0 -6 -7 -11 -15 -11 -21 0 -85 -32 -85 -42 0 -5 -4 -6 -10 -3
-23 14 -94 -18 -141 -65 -51 -52 -59 -50 -33 6 21 43 89 98 161 130 32 14 69
32 83 39 43 25 57 16 17 -10z m-2 -164 c-15 -13 -62 -26 -50 -13 6 5 19 12 30
15 11 3 22 5 25 6 2 0 0 -3 -5 -8z m-207 -668 c-9 -10 -18 -25 -22 -33 -3 -8
-3 -2 0 15 3 16 11 33 17 37 18 11 21 0 5 -19z m42 2 c-7 -8 -17 -15 -22 -15
-6 0 -5 7 2 15 7 8 17 15 22 15 6 0 5 -7 -2 -15z m-90 -65 c-12 -23 -36 -40
-26 -19 3 8 9 22 12 31 4 10 10 15 15 12 5 -3 5 -13 -1 -24z m-30 -48 c0 -5
-7 -17 -15 -28 -14 -18 -14 -17 -4 9 12 27 19 34 19 19z m-930 -327 c0 -8 -4
-15 -10 -15 -5 0 -10 7 -10 15 0 8 5 15 10 15 6 0 10 -7 10 -15z m1437 -802
c-3 -10 -5 -4 -5 12 0 17 2 24 5 18 2 -7 2 -21 0 -30z m-860 -175 c-3 -8 -6
-5 -6 6 -1 11 2 17 5 13 3 -3 4 -12 1 -19z m507 -1307 c-7 -138 -8 -147 -38
-197 -32 -56 -52 -70 -42 -31 3 13 8 75 11 138 4 63 13 146 21 184 23 103 23
104 40 75 11 -20 13 -53 8 -169z m-89 -547 c-8 -58 -14 -74 -27 -74 -12 0 -6
49 11 93 16 41 24 32 16 -19z"/>
<path d="M1514 4825 c-3 -8 -14 -17 -25 -20 -10 -4 -19 -11 -19 -17 0 -7 4 -7
13 1 10 8 29 7 70 -4 64 -17 116 -47 173 -100 34 -31 102 -70 110 -63 1 2 -7
22 -18 46 -21 45 -40 57 -30 20 5 -22 5 -23 -19 -5 -13 10 -44 30 -68 45 -24
15 -60 38 -80 51 -80 53 -101 62 -107 46z"/>
<path d="M3560 4700 c-6 -11 -8 -20 -6 -20 3 0 10 9 16 20 6 11 8 20 6 20 -3
0 -10 -9 -16 -20z"/>
<path d="M1438 4663 c7 -3 16 -2 19 1 4 3 -2 6 -13 5 -11 0 -14 -3 -6 -6z"/>
<path d="M3525 4639 c-9 -17 -15 -33 -13 -35 3 -2 12 12 21 31 21 43 13 47 -8
4z"/>
<path d="M1407 4623 c-3 -5 30 -8 73 -8 43 0 73 3 67 7 -16 10 -134 10 -140 1z"/>
<path d="M1423 4593 c-37 -7 -26 -19 12 -15 67 8 123 -8 192 -54 41 -28 75
-43 87 -41 20 4 20 4 -1 6 -12 0 -34 12 -49 26 -57 53 -177 92 -241 78z"/>
<path d="M1405 4551 c-14 -6 4 -10 60 -13 84 -5 135 -24 192 -72 16 -13 42
-26 58 -28 28 -4 27 -5 -12 -13 -24 -4 -43 -11 -43 -16 0 -5 -4 -9 -10 -9 -5
0 -9 6 -7 12 1 8 -25 22 -63 36 -51 17 -83 22 -147 20 -51 -2 -87 -8 -95 -16
-11 -11 -8 -11 15 -3 46 18 151 13 209 -9 48 -18 53 -23 55 -51 1 -18 4 -34 6
-36 3 -2 26 0 53 5 l49 10 -39 1 c-52 1 -43 8 35 25 43 10 54 14 34 15 -28 2
-29 3 -12 15 14 11 15 15 5 20 -7 3 1 4 17 1 22 -4 26 -3 15 5 -8 5 -29 7 -47
4 -24 -5 -39 0 -65 20 -79 60 -212 99 -263 77z"/>
<path d="M1343 4530 c-13 -5 -23 -14 -23 -20 0 -15 9 -12 37 10 27 21 22 24
-14 10z"/>
<path d="M3475 4529 c-4 -6 -5 -12 -2 -15 2 -3 7 2 10 11 7 17 1 20 -8 4z"/>
<path d="M1400 4510 c-17 -5 -1 -8 50 -8 54 0 67 2 45 8 -39 10 -64 10 -95 0z"/>
<path d="M1530 4496 c0 -2 9 -6 20 -9 11 -3 18 -1 14 4 -5 9 -34 13 -34 5z"/>
<path d="M1356 4421 c-12 -4 14 -7 60 -7 43 1 99 -2 124 -6 l45 -7 -35 14
c-38 14 -162 18 -194 6z"/>
<path d="M3422 4390 c-17 -28 -29 -206 -14 -196 7 4 12 26 12 49 0 23 4 69 10
101 11 67 10 74 -8 46z"/>
<path d="M1343 4382 c-8 -5 31 -9 94 -10 59 -1 116 -5 127 -8 17 -5 19 -4 9 7
-14 15 -211 25 -230 11z"/>
<path d="M1305 4370 c3 -5 8 -10 11 -10 2 0 4 5 4 10 0 6 -5 10 -11 10 -5 0
-7 -4 -4 -10z"/>
<path d="M1748 4373 c12 -2 30 -2 40 0 9 3 -1 5 -23 4 -22 0 -30 -2 -17 -4z"/>
<path d="M1345 4341 c-15 -7 -9 -9 25 -8 136 4 240 -3 240 -17 0 -21 -288 -17
-294 4 -2 8 -4 -9 -5 -37 -1 -31 3 -53 9 -53 6 0 9 12 8 28 l-3 27 180 2 c99
1 225 2 279 2 140 1 115 10 -33 12 -67 0 -120 4 -117 7 4 3 57 11 119 18 l112
13 -130 -1 c-71 0 -184 2 -250 6 -66 3 -129 2 -140 -3z"/>
<path d="M2963 4280 c-34 -20 -47 -38 -15 -21 23 13 58 40 52 41 -3 0 -20 -9
-37 -20z"/>
<path d="M1903 4283 c9 -2 25 -2 35 0 9 3 1 5 -18 5 -19 0 -27 -2 -17 -5z"/>
<path d="M1350 4260 c-10 -6 60 -10 200 -10 118 0 253 -2 300 -5 65 -4 77 -2
50 5 -49 13 -531 22 -550 10z"/>
<path d="M3491 4206 c-1 -29 2 -37 10 -29 8 8 8 19 1 40 -10 28 -10 28 -11
-11z"/>
<path d="M1380 4220 c0 -6 30 -10 73 -9 49 0 66 3 52 9 -28 12 -125 12 -125 0z"/>
<path d="M1595 4194 c-18 -95 -11 -135 21 -105 5 6 28 6 54 2 25 -5 86 -8 135
-8 l90 -1 -95 10 c-136 13 -160 18 -160 30 0 8 43 9 143 5 89 -3 125 -2 97 3
-25 5 -70 9 -101 9 -81 1 -149 12 -149 24 0 7 54 8 158 5 175 -6 138 6 -51 17
-64 4 -120 12 -124 18 -4 7 47 8 168 4 203 -6 170 8 -42 19 l-136 7 -8 -39z
m35 -58 c0 -2 -8 -10 -17 -17 -16 -13 -17 -12 -4 4 13 16 21 21 21 13z"/>
<path d="M1398 4088 c-2 -57 0 -132 5 -168 4 -36 6 -105 3 -155 -3 -49 -2 -79
2 -65 10 32 21 8 17 -34 -2 -15 -1 -25 2 -22 3 3 21 -13 39 -35 30 -36 40 -66
35 -106 -1 -7 3 -13 10 -13 7 0 9 -10 7 -25 -3 -13 -1 -23 5 -22 10 2 48 -103
41 -115 -3 -4 -2 -8 3 -8 9 0 30 -50 64 -152 23 -68 36 -80 58 -54 13 15 11
96 -2 96 -5 0 -5 5 -1 12 4 6 0 16 -8 22 -15 11 -39 75 -57 151 -5 22 -17 67
-26 100 -9 33 -18 71 -20 85 -7 52 -26 109 -64 193 -18 39 -19 60 -16 213 3
93 5 172 5 176 0 3 12 11 28 16 22 9 14 11 -50 11 l-76 1 -4 -102z m49 -420
c-3 -8 -6 -5 -6 6 -1 11 2 17 5 13 3 -3 4 -12 1 -19z"/>
<path d="M3498 4138 c-7 -18 1 -38 15 -38 8 0 8 3 0 11 -6 6 -9 18 -6 25 3 8
3 14 0 14 -3 0 -7 -6 -9 -12z"/>
<path d="M2710 4122 c0 -5 49 -42 110 -82 72 -49 110 -80 112 -94 2 -15 10
-21 27 -21 13 0 26 5 27 10 2 6 -56 51 -127 100 -140 96 -149 102 -149 87z"/>
<path d="M1963 4113 c9 -2 23 -2 30 0 6 3 -1 5 -18 5 -16 0 -22 -2 -12 -5z"/>
<path d="M1599 4070 c-11 -6 -14 -19 -11 -40 4 -26 8 -30 26 -24 11 3 28 13
37 20 11 10 49 14 135 15 l119 1 -110 13 c-60 7 -126 15 -145 19 -19 3 -42 2
-51 -4z m51 -19 c0 -5 -12 -11 -27 -14 -26 -5 -26 -4 -8 9 22 16 35 18 35 5z"/>
<path d="M1943 4073 c9 -2 23 -2 30 0 6 3 -1 5 -18 5 -16 0 -22 -2 -12 -5z"/>
<path d="M1928 4033 c6 -2 18 -2 25 0 6 3 1 5 -13 5 -14 0 -19 -2 -12 -5z"/>
<path d="M1660 4013 c0 -5 -14 -13 -32 -18 -17 -6 -33 -16 -36 -22 -6 -20 22
-15 51 8 24 18 38 20 146 17 66 -2 117 0 113 3 -11 11 -242 22 -242 12z"/>
<path d="M1933 3993 c9 -2 23 -2 30 0 6 3 -1 5 -18 5 -16 0 -22 -2 -12 -5z"/>
<path d="M1665 3972 c6 -5 75 -12 155 -14 151 -5 112 5 -65 16 -60 4 -96 3
-90 -2z"/>
<path d="M1601 3940 c-17 -15 -19 -20 -8 -20 25 0 67 19 67 30 0 17 -33 11
-59 -10z"/>
<path d="M1625 3907 c-41 -23 -44 -27 -20 -22 17 3 38 8 48 11 36 11 15 -12
-30 -33 l-48 -23 40 6 c22 4 45 13 52 21 10 13 32 14 140 8 70 -4 125 -4 122
-1 -3 3 -61 10 -128 15 -73 5 -128 14 -134 21 -10 10 18 11 132 6 80 -4 142
-4 139 -1 -3 3 -63 9 -134 13 l-129 7 -50 -28z"/>
<path d="M3059 3874 c-13 -15 -18 -25 -10 -22 13 4 49 48 39 48 -2 0 -15 -12
-29 -26z"/>
<path d="M2997 3873 c-10 -9 -9 -23 2 -23 5 0 11 7 15 15 5 15 -5 20 -17 8z"/>
<path d="M1625 3824 l-50 -25 40 7 c22 4 46 12 54 18 9 7 63 11 150 10 98 -1
122 1 86 6 -27 5 -90 8 -140 8 -75 0 -98 -4 -140 -24z"/>
<path d="M1670 3801 c0 -5 -16 -12 -35 -15 -19 -4 -37 -11 -40 -15 -6 -10 46
1 90 19 20 8 66 10 140 7 76 -3 93 -2 55 3 -77 11 -210 12 -210 1z"/>
<path d="M2750 3791 c-53 -25 -80 -44 -80 -58 0 -19 24 -16 55 9 15 11 43 27
63 33 31 11 33 14 16 22 -14 7 -29 6 -54 -6z"/>
<path d="M2135 3788 c11 -6 22 -14 25 -17 9 -11 182 -50 253 -57 37 -3 67 -10
67 -15 0 -11 117 -12 124 -1 7 12 -7 29 -24 29 -53 2 -236 26 -250 33 -9 5
-51 12 -94 16 -42 4 -79 11 -82 15 -3 5 -13 9 -22 9 -14 -1 -14 -2 3 -12z"/>
<path d="M1635 3750 c-33 -12 -42 -19 -27 -19 13 -1 32 4 43 10 11 6 48 14 82
18 l62 8 -55 0 c-30 0 -77 -8 -105 -17z"/>
<path d="M1858 3753 c12 -2 32 -2 45 0 12 2 2 4 -23 4 -25 0 -35 -2 -22 -4z"/>
<path d="M1660 3721 c0 -6 17 -7 38 -4 51 8 53 13 4 13 -23 0 -42 -4 -42 -9z"/>
<path d="M1828 3713 c6 -2 18 -2 25 0 6 3 1 5 -13 5 -14 0 -19 -2 -12 -5z"/>
<path d="M1618 3703 c7 -3 16 -2 19 1 4 3 -2 6 -13 5 -11 0 -14 -3 -6 -6z"/>
<path d="M1635 3681 c-11 -5 10 -6 50 -3 39 2 72 6 74 8 8 8 -105 2 -124 -5z"/>
<path d="M3505 3670 c-3 -5 -1 -10 4 -10 6 0 11 5 11 10 0 6 -2 10 -4 10 -3 0
-8 -4 -11 -10z"/>
<path d="M1678 3643 c23 -2 59 -2 80 0 20 2 1 4 -43 4 -44 0 -61 -2 -37 -4z"/>
<path d="M2990 3605 c0 -8 5 -15 10 -15 6 0 10 7 10 15 0 8 -4 15 -10 15 -5 0
-10 -7 -10 -15z"/>
<path d="M1688 3603 c23 -2 61 -2 85 0 23 2 4 4 -43 4 -47 0 -66 -2 -42 -4z"/>
<path d="M1848 3593 c6 -2 18 -2 25 0 6 3 1 5 -13 5 -14 0 -19 -2 -12 -5z"/>
<path d="M1693 3563 c20 -2 54 -2 75 0 20 2 3 4 -38 4 -41 0 -58 -2 -37 -4z"/>
<path d="M1698 3523 c17 -2 47 -2 65 0 17 2 3 4 -33 4 -36 0 -50 -2 -32 -4z"/>
<path d="M1718 3483 c23 -2 61 -2 85 0 23 2 4 4 -43 4 -47 0 -66 -2 -42 -4z"/>
<path d="M1925 3470 c11 -5 27 -9 35 -9 9 0 8 4 -5 9 -11 5 -27 9 -35 9 -9 0
-8 -4 5 -9z"/>
<path d="M1728 3443 c23 -2 59 -2 80 0 20 2 1 4 -43 4 -44 0 -61 -2 -37 -4z"/>
<path d="M1443 3433 c9 -2 23 -2 30 0 6 3 -1 5 -18 5 -16 0 -22 -2 -12 -5z"/>
<path d="M1893 3433 c9 -2 23 -2 30 0 6 3 -1 5 -18 5 -16 0 -22 -2 -12 -5z"/>
<path d="M1948 3423 c7 -3 16 -2 19 1 4 3 -2 6 -13 5 -11 0 -14 -3 -6 -6z"/>
<path d="M1728 3403 c17 -2 47 -2 65 0 17 2 3 4 -33 4 -36 0 -50 -2 -32 -4z"/>
<path d="M1423 3393 c15 -2 39 -2 55 0 15 2 2 4 -28 4 -30 0 -43 -2 -27 -4z"/>
<path d="M1871 3396 c2 -2 27 -6 54 -9 34 -4 42 -3 25 3 -25 8 -87 13 -79 6z"/>
<path d="M1743 3363 c15 -2 37 -2 50 0 12 2 0 4 -28 4 -27 0 -38 -2 -22 -4z"/>
<path d="M1428 3353 c18 -2 45 -2 60 0 15 2 0 4 -33 4 -33 0 -45 -2 -27 -4z"/>
<path d="M1893 3353 c9 -2 23 -2 30 0 6 3 -1 5 -18 5 -16 0 -22 -2 -12 -5z"/>
<path d="M1405 3320 c19 -8 123 -14 114 -6 -2 2 -33 6 -69 9 -42 4 -58 3 -45
-3z"/>
<path d="M1908 3313 c6 -2 18 -2 25 0 6 3 1 5 -13 5 -14 0 -19 -2 -12 -5z"/>
<path d="M1395 3281 c90 -16 159 -21 149 -12 -5 5 -52 11 -104 14 -69 4 -81 4
-45 -2z"/>
<path d="M1773 3283 c20 -2 54 -2 75 0 20 2 3 4 -38 4 -41 0 -58 -2 -37 -4z"/>
<path d="M1908 3273 c6 -2 18 -2 25 0 6 3 1 5 -13 5 -14 0 -19 -2 -12 -5z"/>
<path d="M1385 3241 c106 -15 203 -21 170 -11 -16 5 -74 12 -130 14 -79 4 -88
3 -40 -3z"/>
<path d="M1788 3243 c23 -2 59 -2 80 0 20 2 1 4 -43 4 -44 0 -61 -2 -37 -4z"/>
<path d="M1440 3195 c144 -17 152 -17 148 -5 -2 7 -56 12 -133 15 l-130 3 115
-13z"/>
<path d="M1787 3203 c18 -2 50 -2 70 0 21 2 7 4 -32 4 -38 0 -55 -2 -38 -4z"/>
<path d="M1336 3169 c2 -3 41 -9 86 -12 46 -3 104 -9 131 -13 41 -6 47 -4 47
11 0 14 -6 16 -32 12 -18 -3 -79 -2 -135 1 -55 4 -99 4 -97 1z"/>
<path d="M1788 3163 c7 -3 16 -2 19 1 4 3 -2 6 -13 5 -11 0 -14 -3 -6 -6z"/>
<path d="M1828 3163 c7 -3 16 -2 19 1 4 3 -2 6 -13 5 -11 0 -14 -3 -6 -6z"/>
<path d="M1400 3125 c159 -24 220 -27 220 -11 0 10 -15 13 -57 12 -32 0 -103
2 -158 6 l-100 7 95 -14z"/>
<path d="M1818 3133 c6 -2 18 -2 25 0 6 3 1 5 -13 5 -14 0 -19 -2 -12 -5z"/>
<path d="M1400 3085 c172 -22 240 -24 240 -5 0 7 -28 10 -72 8 -40 -1 -118 1
-173 4 l-100 7 105 -14z"/>
<path d="M1681 3039 c15 -39 21 -83 23 -180 2 -75 0 -126 -6 -123 -4 3 -8 11
-7 17 4 32 -1 34 -53 25 -51 -10 -240 3 -283 18 -15 5 -17 4 -10 -4 12 -13
124 -32 250 -42 l90 -7 -130 -1 c-71 -1 -147 2 -167 7 -21 5 -36 5 -33 1 7
-11 146 -29 257 -32 54 -2 98 -7 98 -12 0 -10 -314 -2 -345 8 -16 6 -17 5 -5
-3 25 -16 180 -33 268 -29 77 3 81 2 87 -19 3 -13 10 -23 15 -23 6 0 10 -5 10
-11 0 -9 -42 -10 -157 -5 -87 4 -174 9 -193 13 -19 3 -32 3 -29 -1 21 -23 328
-47 373 -30 19 7 21 50 4 58 -10 3 -8 9 5 19 13 11 15 16 5 20 -7 2 -10 8 -6
12 13 14 28 -6 22 -30 -3 -13 -3 -28 0 -34 10 -16 34 -2 39 22 3 17 5 16 6 -6
1 -21 5 -28 19 -25 14 3 16 13 14 63 -2 33 -11 74 -19 90 -9 17 -21 40 -27 52
-6 13 -17 23 -24 23 -7 0 -12 8 -11 18 2 9 -3 34 -10 55 -7 21 -10 48 -7 61 4
18 -3 30 -34 54 -21 18 -41 32 -43 32 -3 0 4 -23 14 -51z m96 -231 c-3 -8 -6
-5 -6 6 -1 11 2 17 5 13 3 -3 4 -12 1 -19z"/>
<path d="M1405 3044 c99 -14 243 -19 253 -9 15 15 -20 22 -77 15 -35 -5 -91
-4 -125 1 -33 5 -81 8 -106 8 -31 -1 -14 -6 55 -15z"/>
<path d="M1415 3004 c121 -16 255 -18 255 -4 0 6 -6 10 -12 10 -7 0 -87 1
-178 4 l-165 3 100 -13z"/>
<path d="M1301 2986 c3 -3 57 -13 120 -22 121 -17 238 -19 254 -3 5 6 2 9 -10
9 -90 0 -270 9 -315 15 -30 4 -52 5 -49 1z"/>
<path d="M1310 2944 c28 -8 225 -34 273 -35 26 -1 47 -6 47 -11 0 -11 -178 -5
-280 8 -25 4 -43 4 -40 1 3 -3 46 -11 95 -17 120 -15 140 -19 129 -30 -6 -6
-46 -5 -102 1 -51 6 -99 8 -105 6 -19 -6 139 -28 250 -34 l102 -6 -2 31 c-1
21 -9 33 -22 38 -18 5 -18 7 -2 11 44 12 7 21 -110 27 -71 3 -155 8 -188 11
-33 2 -53 2 -45 -1z m335 -84 c-28 -12 -63 -12 -70 0 -4 6 12 10 42 9 36 0 43
-3 28 -9z"/>
<path d="M1355 2821 c30 -13 223 -33 279 -29 27 1 51 8 53 14 3 9 -23 12 -89
10 -51 0 -131 2 -178 6 -49 5 -76 4 -65 -1z"/>
<path d="M1860 2763 c0 -16 -2 -58 -4 -95 -2 -37 0 -65 5 -62 5 3 9 13 9 23 0
10 7 24 15 31 10 8 13 21 9 33 -9 27 -12 48 -13 75 -1 32 -21 27 -21 -5z"/>
<path d="M1372 2670 c36 -22 338 -42 338 -22 0 5 -71 12 -157 15 -87 3 -167 9
-178 12 -18 6 -18 5 -3 -5z"/>
<path d="M1802 2623 c-6 -2 -10 -9 -6 -14 8 -14 21 -11 21 6 0 8 -1 15 -1 14
-1 0 -7 -3 -14 -6z"/>
<path d="M1360 2599 c0 -5 11 -9 25 -9 14 0 25 2 25 4 0 2 -11 6 -25 8 -14 3
-25 1 -25 -3z"/>
<path d="M1460 2578 c60 -12 308 -14 319 -3 6 6 -59 10 -177 11 -139 1 -176
-1 -142 -8z"/>
<path d="M1366 2560 c25 -23 379 -43 410 -22 7 4 -67 8 -164 10 -96 1 -193 7
-215 11 -22 5 -35 6 -31 1z"/>
<path d="M1371 2521 c27 -17 147 -31 269 -30 176 1 170 14 -8 16 -146 3 -206
7 -257 19 -17 4 -18 3 -4 -5z"/>
<path d="M1371 2481 c37 -24 344 -41 394 -22 11 5 -66 10 -175 14 -107 3 -204
8 -215 12 -16 5 -17 5 -4 -4z"/>
<path d="M1362 2445 c11 -12 206 -35 288 -34 159 2 128 15 -50 22 -102 3 -198
9 -215 13 -16 4 -27 3 -23 -1z"/>
<path d="M1415 2394 c70 -16 342 -23 367 -9 11 7 -35 10 -140 10 -86 0 -186 3
-222 7 l-65 7 60 -15z"/>
<path d="M1355 2370 c13 -22 277 -44 370 -31 56 8 54 8 -50 10 -143 2 -252 10
-293 21 -18 5 -30 5 -27 0z"/>
<path d="M1355 2332 c19 -20 129 -32 279 -31 l151 2 -206 12 c-114 7 -213 16
-220 20 -10 6 -11 5 -4 -3z"/>
<path d="M1358 2288 c14 -14 147 -28 267 -26 l120 1 -125 9 c-69 4 -158 12
-198 16 -39 5 -69 5 -64 0z"/>
<path d="M1756 2272 c-3 -5 8 -6 25 -4 16 2 29 6 29 8 0 8 -49 4 -54 -4z"/>
<path d="M1369 2247 c7 -9 20 -17 27 -17 8 0 11 -6 7 -17 -4 -10 -2 -14 5 -9
13 8 42 -31 42 -56 0 -21 -16 -24 -23 -5 -2 6 -2 3 0 -8 8 -32 6 -179 -2 -232
-6 -42 -8 -45 -16 -25 -5 13 -6 28 -3 33 3 6 3 22 -1 37 l-8 27 -12 -30 c-7
-16 -11 -35 -8 -42 3 -7 -2 -31 -11 -53 -9 -22 -11 -40 -6 -40 12 0 1 -58 -17
-86 -7 -12 -15 -44 -16 -72 -1 -27 -5 -45 -9 -39 -4 7 -7 -1 -7 -18 0 -16 -3
-54 -7 -83 -4 -32 -2 -69 4 -90 6 -20 14 -58 17 -84 4 -32 11 -48 21 -48 9 0
14 -10 14 -27 0 -15 4 -40 9 -57 5 -17 15 -50 22 -73 7 -24 16 -43 21 -43 4 0
8 -14 8 -31 0 -16 4 -28 9 -25 5 3 14 -16 21 -42 6 -26 21 -68 31 -94 23 -57
25 -82 4 -75 -23 9 -27 -9 -15 -66 7 -28 10 -63 8 -77 -3 -24 -4 -24 -18 8
l-15 33 -7 -48 c-18 -119 -26 -160 -36 -185 -15 -35 -5 -86 19 -98 23 -13 397
-12 518 0 88 9 96 12 123 42 15 17 28 36 28 40 0 5 12 19 27 32 33 28 26 56
-14 56 -61 0 -106 13 -111 32 -2 10 -9 18 -14 18 -5 0 -6 -4 -3 -10 3 -5 2
-10 -4 -10 -5 0 -15 8 -21 18 -9 15 -10 14 -5 -5 6 -21 3 -23 -28 -23 -22 0
-37 6 -41 15 -3 8 -13 15 -21 15 -9 0 -14 4 -11 8 2 4 -22 17 -55 28 -40 15
-55 17 -48 8 6 -8 15 -14 20 -14 5 0 43 -24 86 -53 l77 -52 -37 -5 c-21 -3
-37 -9 -37 -15 1 -5 9 -9 18 -7 10 1 7 -4 -8 -12 -14 -9 -45 -15 -70 -15 -48
1 -93 11 -88 19 1 3 -3 24 -11 48 -10 28 -19 41 -30 40 -9 -2 -16 4 -16 12 0
8 -4 18 -9 22 -6 4 -5 12 2 21 10 11 8 19 -8 40 -11 14 -20 30 -20 36 0 6 -5
11 -11 11 -6 0 -9 9 -6 20 3 11 2 20 -3 20 -4 0 -10 8 -14 18 -3 9 -10 24 -15
32 -8 14 -19 50 -52 170 -8 29 -13 137 -14 305 -2 225 -5 266 -21 304 -13 33
-14 46 -6 49 7 2 12 12 12 22 0 24 46 115 52 104 3 -5 8 -21 12 -36 6 -28 34
-38 40 -15 19 67 31 99 39 104 6 4 8 0 4 -10 -4 -11 -2 -14 9 -10 16 6 20 -22
4 -32 -5 -3 -10 -13 -10 -20 0 -22 28 -7 35 18 10 36 29 71 42 80 7 4 13 20
13 35 0 37 36 231 49 265 18 47 14 69 -11 65 -31 -4 -47 -65 -58 -213 -5 -66
-14 -137 -20 -157 -15 -51 -34 -50 -27 2 3 22 2 38 -1 36 -4 -2 -8 30 -9 72
-3 67 1 85 26 137 15 33 31 71 34 85 6 23 3 26 -25 28 -49 4 -47 12 3 13 76 1
30 8 -132 18 -86 6 -165 14 -175 18 -17 6 -17 5 -5 -10z m169 -24 c-10 -2 -26
-2 -35 0 -10 3 -2 5 17 5 19 0 27 -2 18 -5z m-34 -1632 c-7 -8 -35 9 -29 19 4
6 11 5 20 -3 7 -6 11 -14 9 -16z"/>
<path d="M1740 2236 c0 -8 51 -13 56 -5 3 5 -9 9 -25 9 -17 0 -31 -2 -31 -4z"/>
<path d="M1397 2030 c7 -58 10 -60 15 -11 2 21 0 37 -3 35 -4 -2 -9 2 -12 8
-3 7 -2 -7 0 -32z"/>
<path d="M1296 1395 c4 -8 8 -15 10 -15 2 0 4 7 4 15 0 8 -4 15 -10 15 -5 0
-7 -7 -4 -15z"/>
<path d="M3526 1305 c-3 -8 -1 -15 4 -15 6 0 10 7 10 15 0 8 -2 15 -4 15 -2 0
-6 -7 -10 -15z"/>
<path d="M1591 925 c0 -16 8 -48 18 -70 16 -33 20 -36 20 -17 1 13 -5 38 -13
55 -8 18 -17 39 -19 47 -3 8 -6 2 -6 -15z"/>
<path d="M1670 734 c0 -6 7 -19 16 -30 14 -18 14 -18 3 6 -14 31 -19 36 -19
24z"/>
</g>
</svg>
